<?xml version="1.0" encoding="UTF-8"?>
<svg id="Calque_2" data-name="Calque 2" xmlns="http://www.w3.org/2000/svg" viewBox="0 0 282.69 161.6">
  <defs>
    <style>
      .cls-1 {
        fill: #fff;
      }

      .cls-2 {
        fill: #e4d6af;
      }

      .cls-3 {
        fill: none;
      }

      .cls-4 {
        fill: #e8318a;
      }

      .cls-5 {
        fill: #5e4595;
      }

      .cls-6 {
        fill: #e7338b;
      }

      .cls-7 {
        fill: #9ecef0;
      }

      .cls-8 {
        fill: #a396c8;
      }
    </style>
  </defs>
  <path class="cls-7" d="M282.69,96.77c0,1.15-.13,2.26-.37,3.33-.97,2.24-2.11,4.44-3.4,6.6-3.85,6.41-9.07,12.45-15.48,18.03-2.88,2.5-6.01,4.91-9.35,7.21-26.26,18.11-66.18,29.66-110.87,29.66C64.12,161.6,0,125.43,0,80.8S64.12,0,143.22,0c19.07,0,37.27,2.1,53.91,5.93.03,0,.05.01.08.01.82.19,1.64.38,2.45.58,6.67,2.14,11.49,8.38,11.49,15.75,0,2.09-.39,4.09-1.1,5.93-.49.88-.93,1.78-1.33,2.7-1.88,4.26-2.9,8.87-2.9,13.68,0,2.2.21,4.36.63,6.46,3.62,18.52,22.54,32.64,45.34,32.64,4.11,0,8.09-.46,11.88-1.32.42-.09.84-.19,1.25-.3h.01c.9-.17,1.84-.26,2.79-.26,8.27,0,14.97,6.7,14.97,14.97Z"/>
  <circle class="cls-2" cx="55.72" cy="111.99" r="15.59"/>
  <circle class="cls-1" cx="175.1" cy="75.62" r="15.59"/>
  <circle class="cls-6" cx="108.7" cy="132.12" r="15.59"/>
  <circle class="cls-8" cx="168.43" cy="130.45" r="15.59"/>
  <circle class="cls-5" cx="227.09" cy="113.46" r="15.59"/>
  <g>
    <rect class="cls-3" x="33.21" y="24.17" width="146.04" height="64.78"/>
    <path class="cls-4" d="M67.39,38.55c.07.02.16.04.28.04h.84c1.83,0,3.67-.25,5.52-.74,1.85-.49,3.53-1.18,5.03-2.06,1.5-.88,2.72-1.93,3.66-3.16.94-1.23,1.41-2.58,1.41-4.06,0-.8-.18-1.51-.53-2.13-.35-.62-.84-1.14-1.46-1.56-.62-.42-1.37-.74-2.25-.97-.88-.22-1.85-.33-2.9-.33-1.85,0-3.66.23-5.41.7-1.76.47-3.41,1.11-4.96,1.92s-2.97,1.76-4.25,2.85c-1.29,1.09-2.4,2.27-3.34,3.55-.94,1.28-1.66,2.61-2.18,3.99-.52,1.38-.77,2.77-.77,4.15s.26,2.7.77,3.94c1.62.05,3.13.16,4.54.35,1.41.19,2.62.47,3.66.86,1.03.39,1.84.88,2.43,1.49.59.61.88,1.35.88,2.21,0,.94-.35,1.65-1.05,2.14s-1.58.74-2.64.74c-.84,0-1.71-.14-2.6-.42-.89-.28-1.75-.67-2.58-1.18-.83-.5-1.63-1.11-2.39-1.83-.76-.71-1.45-1.51-2.06-2.37-2.6.21-5.01.81-7.22,1.81-2.21,1-4.13,2.29-5.73,3.87-1.61,1.58-2.87,3.4-3.78,5.45-.91,2.05-1.37,4.21-1.37,6.49,0,1.85.31,3.52.93,5.01.62,1.49,1.55,2.76,2.78,3.81s2.77,1.86,4.61,2.43c1.84.56,3.97.84,6.38.84,2.67,0,5.21-.4,7.61-1.21,2.4-.81,4.62-1.83,6.66-3.08s3.89-2.61,5.55-4.1c1.66-1.49,3.11-2.9,4.34-4.24s2.22-2.51,2.97-3.53c.75-1.02,1.24-1.68,1.48-1.99l1.27.98c-.54.77-1.27,1.79-2.18,3.04-.91,1.25-2.02,2.58-3.32,3.99s-2.8,2.82-4.5,4.24c-1.7,1.42-3.6,2.7-5.7,3.85-2.1,1.15-4.39,2.08-6.87,2.79-2.48.71-5.17,1.07-8.05,1.07-3.16,0-5.89-.4-8.19-1.2-2.3-.8-4.2-1.87-5.71-3.22-1.51-1.35-2.63-2.91-3.36-4.68-.73-1.77-1.09-3.64-1.09-5.61,0-1.38.18-2.79.53-4.22.35-1.43.89-2.82,1.62-4.18.73-1.36,1.66-2.65,2.81-3.87,1.15-1.22,2.51-2.3,4.08-3.23,1.57-.94,3.38-1.7,5.41-2.29,2.04-.59,4.32-.94,6.86-1.05-.42-.84-.75-1.73-.98-2.65-.23-.93-.35-1.88-.35-2.87,0-1.8.3-3.51.91-5.12.61-1.6,1.45-3.08,2.51-4.43,1.07-1.35,2.32-2.55,3.76-3.6s2.98-1.95,4.62-2.69c1.64-.74,3.35-1.3,5.12-1.69,1.77-.39,3.52-.58,5.26-.58s3.37.18,4.76.54c1.39.36,2.57.87,3.53,1.53.96.66,1.7,1.45,2.21,2.37.52.93.77,1.94.77,3.04,0,1.22-.25,2.37-.76,3.45-.5,1.08-1.18,2.06-2.04,2.94-.86.88-1.85,1.66-2.99,2.36-1.14.69-2.34,1.27-3.62,1.74-1.28.47-2.6.83-3.96,1.07-1.36.25-2.67.37-3.94.37-.42,0-.76-.01-1.02-.04-.26-.02-.41-.04-.46-.04l.21-1.83ZM66.47,49.52c0-.56-.25-1.02-.76-1.39-.5-.36-1.16-.65-1.97-.86s-1.72-.37-2.74-.47-2.06-.17-3.11-.19c.44.66.94,1.24,1.49,1.74.55.5,1.12.93,1.71,1.28.59.35,1.18.62,1.78.81.6.19,1.17.28,1.71.28.63,0,1.11-.12,1.42-.35.32-.23.47-.52.47-.84Z"/>
    <path class="cls-4" d="M140.72,20.8c-.38.47-.73.92-1.07,1.35-.34.43-.67.88-1,1.35,2.37.87,4.28,1.94,5.73,3.22,1.45,1.28,2.58,2.61,3.38,4.01.8,1.39,1.33,2.77,1.6,4.11.27,1.35.4,2.51.4,3.5,0,1.38-.23,2.7-.69,3.96-.46,1.25-1.07,2.4-1.83,3.43-.76,1.03-1.65,1.93-2.65,2.69-1.01.76-2.06,1.34-3.16,1.74,2.27,1.88,3.97,3.96,5.08,6.26,1.11,2.3,1.67,4.62,1.67,6.96,0,1.97-.4,3.83-1.21,5.59s-1.9,3.29-3.29,4.61c-1.38,1.31-3.02,2.36-4.9,3.13s-3.9,1.16-6.03,1.16c-1.85,0-3.56-.3-5.12-.9s-2.95-1.41-4.18-2.44c-1.23-1.03-2.3-2.25-3.2-3.66s-1.61-2.91-2.13-4.5l1.76-.53c.87,2.81,2.3,4.99,4.29,6.52s4.39,2.3,7.21,2.3c1.73,0,3.39-.32,4.97-.97,1.58-.65,2.97-1.52,4.17-2.64s2.14-2.43,2.85-3.94,1.05-3.15,1.05-4.9c0-1.2-.16-2.33-.49-3.41-.33-1.08-.76-2.1-1.3-3.06-.54-.96-1.14-1.85-1.81-2.65s-1.35-1.53-2.06-2.16c-.63.12-1.27.21-1.9.28s-1.25.11-1.86.11c-.84,0-1.71-.06-2.58-.19-.88-.13-1.68-.32-2.39-.58-.71-.26-1.3-.6-1.76-1.02s-.69-.94-.69-1.55c0-.14.04-.35.11-.62.07-.27.22-.53.44-.79.22-.26.56-.49,1-.69.45-.2,1.05-.3,1.83-.3.73,0,1.46.08,2.2.25.74.16,1.45.38,2.13.65.68.27,1.34.57,1.97.91.63.34,1.21.69,1.72,1.04.84-.37,1.69-.88,2.55-1.53.86-.64,1.63-1.44,2.34-2.37.7-.94,1.28-2.02,1.72-3.23.45-1.22.67-2.59.67-4.11,0-2.67-.74-5.07-2.21-7.21-1.48-2.13-3.67-3.76-6.57-4.89-1.41,1.97-2.72,3.93-3.94,5.87-1.22,1.95-2.36,3.89-3.41,5.84-1.05,1.95-2.04,3.89-2.97,5.84-.93,1.95-1.81,3.91-2.65,5.91-1.95,4.55-3.84,8.43-5.7,11.65-1.85,3.22-3.83,5.85-5.92,7.89-2.1,2.04-4.38,3.53-6.86,4.48-2.47.95-5.3,1.42-8.49,1.42-2.46,0-4.58-.4-6.36-1.21-1.78-.81-3.25-1.92-4.39-3.32-1.15-1.41-2-3.04-2.55-4.9-.55-1.86-.83-3.85-.83-5.96,0-2.34.37-4.76,1.12-7.26.75-2.5,1.86-4.99,3.34-7.47.94-1.57,2.1-3.2,3.48-4.9,1.38-1.7,2.96-3.38,4.75-5.03,1.78-1.65,3.77-3.22,5.96-4.71,2.19-1.49,4.56-2.79,7.1-3.9,2.54-1.11,5.26-2,8.16-2.67,2.89-.67,5.95-1,9.16-1,1.97,0,3.77.1,5.4.3,1.63.2,3.13.49,4.52.86.54-.54,1.08-1.08,1.63-1.62.55-.54,1.12-1.08,1.71-1.62l1.02,1.23ZM126.73,35.39c1.24-2.06,2.54-4,3.88-5.82,1.35-1.82,2.79-3.57,4.34-5.26-.89-.21-1.83-.37-2.83-.49-1-.12-2.04-.18-3.15-.18-3.54,0-7.03.49-10.46,1.46-3.43.97-6.7,2.33-9.81,4.06-3.11,1.73-5.98,3.8-8.63,6.19-2.65,2.39-4.94,4.99-6.87,7.79-1.93,2.8-3.45,5.76-4.54,8.88-1.09,3.12-1.63,6.28-1.63,9.49,0,1.59.22,3.04.65,4.34.43,1.3,1.08,2.41,1.95,3.34.87.93,1.94,1.64,3.22,2.14,1.28.5,2.75.76,4.41.76,2.79,0,5.23-.52,7.31-1.56,2.09-1.04,3.94-2.47,5.57-4.27,1.63-1.8,3.1-3.91,4.41-6.31,1.31-2.4,2.6-4.96,3.85-7.68,1.25-2.72,2.54-5.52,3.85-8.4,1.31-2.88,2.8-5.71,4.46-8.47ZM136.57,49.13c-.35-.26-.77-.5-1.25-.72-.48-.22-.98-.41-1.49-.56-.52-.15-1.03-.28-1.55-.37-.52-.09-.96-.14-1.34-.14-.66,0-1.07.08-1.25.23-.18.15-.26.29-.26.4,0,.21.16.4.47.56.32.16.71.31,1.2.44.48.13,1.01.23,1.6.3s1.16.11,1.72.11c.26,0,.55-.01.88-.04.33-.02.75-.09,1.27-.21Z"/>
  </g>
</svg>